<?xml version="1.0"?>
<svg width="200" height="250" xmlns="http://www.w3.org/2000/svg" xmlns:svg="http://www.w3.org/2000/svg" enable-background="new 0 0 200 200" version="1.1" xml:space="preserve">
 <g class="layer">
  <title>Layer 1</title>
  <path d="m197.06,7.4c-12.91,9.72 -25.13,20.41 -36.66,31.8l-4.3,4.3l-31.52,-0.28c-22.22,-0.14 -44.43,-0.14 -66.65,-0.28l-20.27,0l-2.5,0c-0.83,0 -1.81,0 -2.36,0l-5,-0.28c-3.47,-0.28 -6.94,-0.42 -10.55,-0.42c-0.83,0 -1.81,0 -2.78,0.14l-1.39,0.14l-1.11,0.14c-0.42,0 -0.83,0.14 -1.25,0.14c-3.33,0.42 -6.25,1.67 -7.64,3.89c-0.42,0.56 -0.56,1.25 -0.83,1.81c-0.14,0.69 -0.14,1.39 -0.14,1.94c0,1.25 0.56,2.5 1.53,3.75c0.83,1.25 2.08,2.5 3.33,3.61l1.39,1.25l0.97,0.83l0.83,0.69l0.69,0.69l1.81,1.81l3.61,3.61l7.22,7.22l57.63,57.21c7.64,7.64 15.14,13.05 18.33,13.47c-2.08,14.02 -3.19,28.05 -3.19,42.21l0,22.91c-2.64,0.83 -4.58,2.08 -6.67,3.19c-2.78,1.67 -5.42,3.47 -8.05,5.28l-3.75,2.5c-0.56,0.42 -1.25,0.83 -1.67,1.11l-1.94,1.11l-16.25,9.03c-2.5,1.39 -3.61,4.3 -2.5,6.53c0,0.56 0.28,1.11 0.83,1.11c0,0 0.14,0 0.14,0c1.25,0.97 3.19,1.25 5,0.56c15.83,1.81 31.66,2.78 47.63,2.78l32.22,0c2.5,0 4.58,-2.08 4.58,-4.58c0.28,-0.42 0.28,-1.11 -0.28,-1.39c-0.56,-1.81 -2.36,-3.05 -4.3,-3.05l-0.14,0c-2.64,-1.81 -5.42,-3.75 -8.05,-5.55l-6.39,-4.17l-3.19,-2.08c-0.83,-0.56 -1.81,-1.39 -2.78,-2.08c-4.03,-3.05 -7.91,-6.25 -12.91,-8.89c-0.83,-0.42 -1.67,-0.83 -2.64,-1.11l0,-23.19c0,-14.3 -1.11,-28.47 -3.19,-42.63c0.69,-0.42 1.53,-0.97 2.64,-1.94l0,0c15.97,-15.27 32.08,-30.41 48.18,-45.68c8.05,-7.64 15.97,-15.27 24.02,-23.05l5.97,-5.83c0.56,-0.56 0.97,-0.97 1.39,-1.39l1.53,-1.25l3.19,-2.64c1.11,-0.97 2.22,-1.94 3.19,-2.92c0.56,-0.56 1.11,-1.11 1.67,-1.67c0.28,-0.28 0.56,-0.56 0.83,-0.83c0.28,-0.42 0.69,-0.97 1.11,-1.39c1.39,-2.08 2.22,-4.3 1.67,-6.53c-0.56,-2.22 -2.36,-3.89 -4.58,-4.72c-1.11,-0.42 -2.36,-0.56 -3.61,-0.69c-1.11,0 -1.81,0 -2.64,0c-1.53,0 -2.92,0.14 -4.3,0.28l-1.94,0.14c-0.69,0 -1.11,0 -1.81,0l-4.17,0l-5.83,0c10.69,-10.83 20.69,-22.36 29.85,-34.58l0,0c0.97,-1.39 -0.42,-2.78 -1.25,-2.08zm-174.27,52.63l-3.61,-3.61l-1.81,-1.81c-0.28,-0.28 -0.42,-0.56 -1.11,-1.11l-1.11,-0.69l-1.53,-1.39l1.39,-0.14c0.83,0 1.53,0 2.36,0c3.19,0 6.53,0.14 9.86,0.42l5.14,0.42c1.11,0 1.94,0 2.78,0l2.5,0l20.27,0c22.22,-0.14 44.43,-0.14 66.65,-0.28l23.33,-0.14l-8.47,8.47c-0.42,0.42 -0.69,0.83 -0.83,1.25c-0.14,0 -0.14,-0.14 -0.28,-0.14c-0.83,-0.28 -1.67,-0.69 -2.36,-0.83c-3.33,-0.69 -6.39,0 -9.03,0.83c-2.64,0.97 -5,2.22 -7.08,3.75c-2.08,1.53 -4.3,3.19 -6.11,5.28c-1.81,1.94 -3.33,4.17 -4.58,6.53c-0.28,0.42 -0.42,0.83 -0.69,1.25c-13.75,-1.94 -27.49,-2.92 -41.24,-2.92l-27.22,0c-0.56,0 -1.11,0.14 -1.67,0.42l-8.33,-8.33l-7.22,-7.22zm94.28,165.94c1.11,0.69 2.22,1.39 3.47,1.94c1.25,0.56 2.36,1.11 3.47,1.67l6.94,3.19c0.69,0.28 1.53,0.69 2.22,0.97l-23.74,0c-13.19,0 -26.38,0.69 -39.57,1.94l8.89,-5l2.08,-1.11c0.83,-0.42 1.53,-0.97 2.22,-1.39l3.89,-2.64c2.5,-1.81 5,-3.47 7.5,-4.86c1.94,-1.11 4.17,-2.36 5.69,-2.78c0.83,-0.28 0.83,-0.28 1.67,-0.14c0.69,0.14 1.67,0.56 2.64,0.97c4.03,1.81 8.19,4.58 12.64,7.22zm32.35,-133.44c-15.41,15.97 -30.83,31.8 -46.1,47.77l0,0c-0.69,0.69 -1.25,1.39 -1.53,1.94c-0.14,-0.14 -0.42,-0.14 -0.56,-0.14c-1.11,-3.47 -6.25,-10.41 -13.47,-17.5l-40.55,-40.27l20.27,0c13.33,0 26.52,-0.97 39.71,-2.64c-0.56,1.67 -0.97,3.47 -0.97,5.55c0,0.97 0.14,2.08 0.28,3.19c0.28,0.69 0.42,1.53 0.69,2.22l-2.78,2.78c-2.5,2.5 -4.3,5.97 -5.28,10c0,0.28 1.39,1.67 1.67,1.67c4.17,-0.97 7.5,-2.78 10,-5.28l2.78,-2.78c1.67,0.69 3.47,0.97 5,0.97c2.08,0 3.89,-0.42 5.69,-0.83c3.33,-1.11 6.25,-2.78 8.89,-4.72c2.5,-1.81 2.92,-5.14 1.11,-6.8c-1.81,-1.67 -4.58,-1.81 -6.39,-0.42c-1.94,1.53 -4.17,2.64 -6.25,3.33c-2.08,0.69 -3.75,0.56 -4.58,0c-0.56,-0.28 -0.97,-0.83 -1.25,-1.25c-0.14,-0.28 -0.14,-0.56 -0.28,-0.83c0,-0.42 -0.14,-0.69 -0.14,-1.11c0,-1.67 0.83,-3.89 1.94,-5.97c0.97,-1.67 2.22,-3.47 3.47,-5c1.25,-1.53 2.78,-2.92 4.3,-4.17c3.19,-2.5 7.08,-4.44 9.86,-4.3c0.42,0 0.56,0.14 0.97,0.14c0.28,0.14 0.56,0.28 0.83,0.42c0.56,0.42 1.11,0.83 1.53,1.39c0.83,1.11 1.25,2.64 0.97,4.58c-0.56,3.89 -2.64,8.19 -5.14,11.8l0,0c-0.28,0.42 -0.14,1.11 0.28,1.39c0.42,0.42 0.97,0.56 1.53,0.14c1.67,-1.39 3.05,-2.92 4.44,-4.72c0.28,0.97 0.56,1.53 0.97,1.53l9.44,0c2.5,0 5.14,-0.28 7.64,-0.83c-3.33,2.78 -6.25,5.69 -9.03,8.75zm29.3,-41.1c0.56,0 1.67,0 2.36,-0.14l2.22,-0.14c1.39,-0.14 2.64,-0.28 3.89,-0.28c0.56,0 1.25,0 1.53,0c0.14,0 0.28,0 0.42,0c0.28,0 0.56,0.14 0.56,0.42c0,0.28 -0.14,0.56 -0.28,0.83l-0.14,0.28l-0.56,0.69c-0.42,0.42 -0.83,0.97 -1.25,1.39c-0.83,0.97 -1.81,1.81 -2.92,2.78l-3.05,2.78l-1.67,1.53c-0.56,0.56 -1.11,1.11 -1.53,1.53l-5.83,5.97c-3.05,3.05 -5.97,6.11 -9.03,9.3c-4.44,-1.67 -8.75,-2.5 -13.19,-2.5l-6.11,0c0.69,-2.22 0.97,-5.14 0,-7.91c0.56,-0.14 1.25,-0.56 1.67,-0.97l15,-15l13.75,-0.14l4.17,-0.42z" id="svg_1"/>
 </g>
</svg>