<svg xmlns="http://www.w3.org/2000/svg" xmlns:xlink="http://www.w3.org/1999/xlink" version="1.1" x="0px" y="0px" viewBox="0 0 200 250" style="enable-background:new 0 0 200 200;" xml:space="preserve"><path d="M169.5,15.3c-9.3,7-18.1,14.7-26.4,22.9l-3.1,3.1l-22.7-0.2c-16-0.1-32-0.1-48-0.2H54.7h-1.8c-0.6,0-1.3,0-1.7,0l-3.6-0.2  c-2.5-0.2-5-0.3-7.6-0.3c-0.6,0-1.3,0-2,0.1l-1,0.1l-0.8,0.1c-0.3,0-0.6,0.1-0.9,0.1c-2.4,0.3-4.5,1.2-5.5,2.8  c-0.3,0.4-0.4,0.9-0.6,1.3c-0.1,0.5-0.1,1-0.1,1.4c0,0.9,0.4,1.8,1.1,2.7c0.6,0.9,1.5,1.8,2.4,2.6l1,0.9l0.7,0.6l0.6,0.5l0.5,0.5  l1.3,1.3l2.6,2.6l5.2,5.2l41.5,41.2c5.5,5.5,10.9,9.4,13.2,9.7c-1.5,10.1-2.3,20.2-2.3,30.4V161c-1.9,0.6-3.3,1.5-4.8,2.3  c-2,1.2-3.9,2.5-5.8,3.8l-2.7,1.8c-0.4,0.3-0.9,0.6-1.2,0.8l-1.4,0.8l-11.7,6.5c-1.8,1-2.6,3.1-1.8,4.7c0,0.4,0.2,0.8,0.6,0.8  c0,0,0.1,0,0.1,0c0.9,0.7,2.3,0.9,3.6,0.4c11.4,1.3,22.8,2,34.3,2h23.2c1.8,0,3.3-1.5,3.3-3.3c0.2-0.3,0.2-0.8-0.2-1  c-0.4-1.3-1.7-2.2-3.1-2.2h-0.1c-1.9-1.3-3.9-2.7-5.8-4l-4.6-3l-2.3-1.5c-0.6-0.4-1.3-1-2-1.5c-2.9-2.2-5.7-4.5-9.3-6.4  c-0.6-0.3-1.2-0.6-1.9-0.8v-16.7c0-10.3-0.8-20.5-2.3-30.7c0.5-0.3,1.1-0.7,1.9-1.4l0,0c11.5-11,23.1-21.9,34.7-32.9  c5.8-5.5,11.5-11,17.3-16.6l4.3-4.2c0.4-0.4,0.7-0.7,1-1l1.1-0.9l2.3-1.9c0.8-0.7,1.6-1.4,2.3-2.1c0.4-0.4,0.8-0.8,1.2-1.2  c0.2-0.2,0.4-0.4,0.6-0.6c0.2-0.3,0.5-0.7,0.8-1c1-1.5,1.6-3.1,1.2-4.7c-0.4-1.6-1.7-2.8-3.3-3.4c-0.8-0.3-1.7-0.4-2.6-0.5  c-0.8,0-1.3,0-1.9,0c-1.1,0-2.1,0.1-3.1,0.2l-1.4,0.1c-0.5,0-0.8,0-1.3,0l-3,0l-4.2,0c7.7-7.8,14.9-16.1,21.5-24.9h0  C171.1,15.8,170.1,14.8,169.5,15.3z M44,53.2l-2.6-2.6l-1.3-1.3c-0.2-0.2-0.3-0.4-0.8-0.8L38.5,48L37.4,47l1-0.1c0.6,0,1.1,0,1.7,0  c2.3,0,4.7,0.1,7.1,0.3l3.7,0.3c0.8,0,1.4,0,2,0h1.8h14.6c16-0.1,32-0.1,48-0.2l16.8-0.1l-6.1,6.1c-0.3,0.3-0.5,0.6-0.6,0.9  c-0.1,0-0.1-0.1-0.2-0.1c-0.6-0.2-1.2-0.5-1.7-0.6c-2.4-0.5-4.6,0-6.5,0.6c-1.9,0.7-3.6,1.6-5.1,2.7c-1.5,1.1-3.1,2.3-4.4,3.8  c-1.3,1.4-2.4,3-3.3,4.7c-0.2,0.3-0.3,0.6-0.5,0.9c-9.9-1.4-19.8-2.1-29.7-2.1H56.4c-0.4,0-0.8,0.1-1.2,0.3l-6-6L44,53.2z   M111.9,172.7c0.8,0.5,1.6,1,2.5,1.4c0.9,0.4,1.7,0.8,2.5,1.2l5,2.3c0.5,0.2,1.1,0.5,1.6,0.7h-17.1c-9.5,0-19,0.5-28.5,1.4l6.4-3.6  l1.5-0.8c0.6-0.3,1.1-0.7,1.6-1l2.8-1.9c1.8-1.3,3.6-2.5,5.4-3.5c1.4-0.8,3-1.7,4.1-2c0.6-0.2,0.6-0.2,1.2-0.1  c0.5,0.1,1.2,0.4,1.9,0.7C105.7,168.8,108.7,170.8,111.9,172.7z M135.2,76.6C124.1,88.1,113,99.5,102,111l0,0  c-0.5,0.5-0.9,1-1.1,1.4c-0.1-0.1-0.3-0.1-0.4-0.1c-0.8-2.5-4.5-7.5-9.7-12.6l-29.2-29h14.6c9.6,0,19.1-0.7,28.6-1.9  c-0.4,1.2-0.7,2.5-0.7,4c0,0.7,0.1,1.5,0.2,2.3c0.2,0.5,0.3,1.1,0.5,1.6l-2,2c-1.8,1.8-3.1,4.3-3.8,7.2c0,0.2,1,1.2,1.2,1.2  c3-0.7,5.4-2,7.2-3.8l2-2c1.2,0.5,2.5,0.7,3.6,0.7c1.5,0,2.8-0.3,4.1-0.6c2.4-0.8,4.5-2,6.4-3.4c1.8-1.3,2.1-3.7,0.8-4.9  c-1.3-1.2-3.3-1.3-4.6-0.3c-1.4,1.1-3,1.9-4.5,2.4c-1.5,0.5-2.7,0.4-3.3,0c-0.4-0.2-0.7-0.6-0.9-0.9c-0.1-0.2-0.1-0.4-0.2-0.6  c0-0.3-0.1-0.5-0.1-0.8c0-1.2,0.6-2.8,1.4-4.3c0.7-1.2,1.6-2.5,2.5-3.6c0.9-1.1,2-2.1,3.1-3c2.3-1.8,5.1-3.2,7.1-3.1  c0.3,0,0.4,0.1,0.7,0.1c0.2,0.1,0.4,0.2,0.6,0.3c0.4,0.3,0.8,0.6,1.1,1c0.6,0.8,0.9,1.9,0.7,3.3c-0.4,2.8-1.9,5.9-3.7,8.5v0  c-0.2,0.3-0.1,0.8,0.2,1c0.3,0.3,0.7,0.4,1.1,0.1c1.2-1,2.2-2.1,3.2-3.4c0.2,0.7,0.4,1.1,0.7,1.1h6.8c1.8,0,3.7-0.2,5.5-0.6  C139.3,72.3,137.2,74.4,135.2,76.6z M156.3,47c0.4,0,1.2,0,1.7-0.1l1.6-0.1c1-0.1,1.9-0.2,2.8-0.2c0.4,0,0.9,0,1.1,0  c0.1,0,0.2,0,0.3,0c0.2,0,0.4,0.1,0.4,0.3c0,0.2-0.1,0.4-0.2,0.6l-0.1,0.2l-0.4,0.5c-0.3,0.3-0.6,0.7-0.9,1c-0.6,0.7-1.3,1.3-2.1,2  l-2.2,2l-1.2,1.1c-0.4,0.4-0.8,0.8-1.1,1.1l-4.2,4.3c-2.2,2.2-4.3,4.4-6.5,6.7c-3.2-1.2-6.3-1.8-9.5-1.8h-4.4c0.5-1.6,0.7-3.7,0-5.7  c0.4-0.1,0.9-0.4,1.2-0.7l10.8-10.8l9.9-0.1L156.3,47z"/><text x="0" y="215" fill="#000000" font-size="5px" font-weight="bold" font-family="'Helvetica Neue', Helvetica, Arial-Unicode, Arial, Sans-serif">Created by Symbolon</text><text x="0" y="220" fill="#000000" font-size="5px" font-weight="bold" font-family="'Helvetica Neue', Helvetica, Arial-Unicode, Arial, Sans-serif">from the Noun Project</text></svg>